<svg width="168" height="24" viewBox="0 0 168 24" fill="none" xmlns="http://www.w3.org/2000/svg">
<path d="M10.0799 7.89605C11.1569 5.96505 11.6949 4.99905 12.4999 4.99905C13.3049 4.99905 13.8429 5.96505 14.9199 7.89605L15.1979 8.39605C15.5039 8.94505 15.6579 9.21905 15.8959 9.40005C16.1339 9.58105 16.4309 9.64805 17.0259 9.78305L17.5659 9.90505C19.6569 10.378 20.7029 10.615 20.9509 11.415C21.1999 12.215 20.4869 13.048 19.0609 14.715L18.6929 15.145C18.2879 15.619 18.0859 15.856 17.9939 16.149C17.9039 16.442 17.9339 16.758 17.9949 17.389L18.0509 17.965C18.2669 20.189 18.3739 21.301 17.7229 21.795C17.0719 22.289 16.0929 21.839 14.1359 20.938L13.6289 20.704C13.0729 20.448 12.7949 20.32 12.4999 20.32C12.2049 20.32 11.9269 20.448 11.3699 20.704L10.8639 20.938C8.9069 21.838 7.9279 22.29 7.2769 21.795C6.6259 21.301 6.7339 20.189 6.9489 17.965L7.0049 17.39C7.0659 16.758 7.0969 16.442 7.0049 16.15C6.9149 15.856 6.7119 15.62 6.3069 15.146L5.9379 14.714C4.5129 13.048 3.7999 12.214 4.0479 11.414C4.2979 10.614 5.3429 10.378 7.4339 9.90505L7.9739 9.78305C8.5689 9.64805 8.8659 9.58105 9.1039 9.40005C9.3429 9.22005 9.4959 8.94505 9.8019 8.39605L10.0799 7.89605ZM4.8679 2.49905C4.8979 2.39405 5.0849 2.39305 5.1159 2.49905C5.2559 2.98105 5.5159 3.69305 5.9089 4.08405C6.3019 4.47405 7.0169 4.73005 7.4989 4.86705C7.6059 4.89705 7.6059 5.08405 7.5009 5.11505C7.0189 5.25505 6.3059 5.51505 5.9149 5.90805C5.5249 6.30105 5.2699 7.01605 5.1329 7.49805C5.1029 7.60505 4.9149 7.60505 4.8839 7.50005C4.7439 7.01805 4.4839 6.30505 4.0909 5.91405C3.6979 5.52405 2.9839 5.26905 2.5009 5.13205C2.3949 5.10205 2.3939 4.91405 2.4999 4.88305C2.9819 4.74305 3.6939 4.48305 4.0849 4.09005C4.4749 3.69705 4.7309 2.98205 4.8679 2.49905Z" fill="#FFCC67"/>
<path fill-rule="evenodd" clip-rule="evenodd" d="M19 3.25C19.1989 3.25 19.3897 3.32902 19.5303 3.46967C19.671 3.61032 19.75 3.80109 19.75 4V4.25H20C20.1989 4.25 20.3897 4.32902 20.5303 4.46967C20.671 4.61032 20.75 4.80109 20.75 5C20.75 5.19891 20.671 5.38968 20.5303 5.53033C20.3897 5.67098 20.1989 5.75 20 5.75H19.75V6C19.75 6.19891 19.671 6.38968 19.5303 6.53033C19.3897 6.67098 19.1989 6.75 19 6.75C18.8011 6.75 18.6103 6.67098 18.4697 6.53033C18.329 6.38968 18.25 6.19891 18.25 6V5.75H18C17.8011 5.75 17.6103 5.67098 17.4697 5.53033C17.329 5.38968 17.25 5.19891 17.25 5C17.25 4.80109 17.329 4.61032 17.4697 4.46967C17.6103 4.32902 17.8011 4.25 18 4.25H18.25V4C18.25 3.80109 18.329 3.61032 18.4697 3.46967C18.6103 3.32902 18.8011 3.25 19 3.25Z" fill="#FFCC67"/>
<path d="M46.0799 7.89605C47.1569 5.96505 47.6949 4.99905 48.4999 4.99905C49.3049 4.99905 49.8429 5.96505 50.9199 7.89605L51.1979 8.39605C51.5039 8.94505 51.6579 9.21905 51.8959 9.40005C52.1339 9.58105 52.4309 9.64805 53.0259 9.78305L53.5659 9.90505C55.6569 10.378 56.7029 10.615 56.9509 11.415C57.1999 12.215 56.4869 13.048 55.0609 14.715L54.6929 15.145C54.2879 15.619 54.0859 15.856 53.9939 16.149C53.9039 16.442 53.9339 16.758 53.9949 17.389L54.0509 17.965C54.2669 20.189 54.3739 21.301 53.7229 21.795C53.0719 22.289 52.0929 21.839 50.1359 20.938L49.6289 20.704C49.0729 20.448 48.7949 20.32 48.4999 20.32C48.2049 20.32 47.9269 20.448 47.3699 20.704L46.8639 20.938C44.9069 21.838 43.9279 22.29 43.2769 21.795C42.6259 21.301 42.7339 20.189 42.9489 17.965L43.0049 17.39C43.0659 16.758 43.0969 16.442 43.0049 16.15C42.9149 15.856 42.7119 15.62 42.3069 15.146L41.9379 14.714C40.5129 13.048 39.7999 12.214 40.0479 11.414C40.2979 10.614 41.3429 10.378 43.4339 9.90505L43.9739 9.78305C44.5689 9.64805 44.8659 9.58105 45.1039 9.40005C45.3429 9.22005 45.4959 8.94505 45.8019 8.39605L46.0799 7.89605ZM40.8679 2.49905C40.8979 2.39405 41.0849 2.39305 41.1159 2.49905C41.2559 2.98105 41.5159 3.69305 41.9089 4.08405C42.3019 4.47405 43.0169 4.73005 43.4989 4.86705C43.6059 4.89705 43.6059 5.08405 43.5009 5.11505C43.0189 5.25505 42.3059 5.51505 41.9149 5.90805C41.5249 6.30105 41.2699 7.01605 41.1329 7.49805C41.1029 7.60505 40.9149 7.60505 40.8839 7.50005C40.7439 7.01805 40.4839 6.30505 40.0909 5.91405C39.6979 5.52405 38.9839 5.26905 38.5009 5.13205C38.3949 5.10205 38.3939 4.91405 38.4999 4.88305C38.9819 4.74305 39.6939 4.48305 40.0849 4.09005C40.4749 3.69705 40.7309 2.98205 40.8679 2.49905Z" fill="#FFCC67"/>
<path fill-rule="evenodd" clip-rule="evenodd" d="M55 3.25C55.1989 3.25 55.3897 3.32902 55.5303 3.46967C55.671 3.61032 55.75 3.80109 55.75 4V4.25H56C56.1989 4.25 56.3897 4.32902 56.5303 4.46967C56.671 4.61032 56.75 4.80109 56.75 5C56.75 5.19891 56.671 5.38968 56.5303 5.53033C56.3897 5.67098 56.1989 5.75 56 5.75H55.75V6C55.75 6.19891 55.671 6.38968 55.5303 6.53033C55.3897 6.67098 55.1989 6.75 55 6.75C54.8011 6.75 54.6103 6.67098 54.4697 6.53033C54.329 6.38968 54.25 6.19891 54.25 6V5.75H54C53.8011 5.75 53.6103 5.67098 53.4697 5.53033C53.329 5.38968 53.25 5.19891 53.25 5C53.25 4.80109 53.329 4.61032 53.4697 4.46967C53.6103 4.32902 53.8011 4.25 54 4.25H54.25V4C54.25 3.80109 54.329 3.61032 54.4697 3.46967C54.6103 3.32902 54.8011 3.25 55 3.25Z" fill="#FFCC67"/>
<path d="M154.08 7.89605C155.157 5.96505 155.695 4.99905 156.5 4.99905C157.305 4.99905 157.843 5.96505 158.92 7.89605L159.198 8.39605C159.504 8.94505 159.658 9.21905 159.896 9.40005C160.134 9.58105 160.431 9.64805 161.026 9.78305L161.566 9.90505C163.657 10.378 164.703 10.615 164.951 11.415C165.2 12.215 164.487 13.048 163.061 14.715L162.693 15.145C162.288 15.619 162.086 15.856 161.994 16.149C161.904 16.442 161.934 16.758 161.995 17.389L162.051 17.965C162.267 20.189 162.374 21.301 161.723 21.795C161.072 22.289 160.093 21.839 158.136 20.938L157.629 20.704C157.073 20.448 156.795 20.32 156.5 20.32C156.205 20.32 155.927 20.448 155.37 20.704L154.864 20.938C152.907 21.838 151.928 22.29 151.277 21.795C150.626 21.301 150.734 20.189 150.949 17.965L151.005 17.39C151.066 16.758 151.097 16.442 151.005 16.15C150.915 15.856 150.712 15.62 150.307 15.146L149.938 14.714C148.513 13.048 147.8 12.214 148.048 11.414C148.298 10.614 149.343 10.378 151.434 9.90505L151.974 9.78305C152.569 9.64805 152.866 9.58105 153.104 9.40005C153.343 9.22005 153.496 8.94505 153.802 8.39605L154.08 7.89605ZM148.868 2.49905C148.898 2.39405 149.085 2.39305 149.116 2.49905C149.256 2.98105 149.516 3.69305 149.909 4.08405C150.302 4.47405 151.017 4.73005 151.499 4.86705C151.606 4.89705 151.606 5.08405 151.501 5.11505C151.019 5.25505 150.306 5.51505 149.915 5.90805C149.525 6.30105 149.27 7.01605 149.133 7.49805C149.103 7.60505 148.915 7.60505 148.884 7.50005C148.744 7.01805 148.484 6.30505 148.091 5.91405C147.698 5.52405 146.984 5.26905 146.501 5.13205C146.395 5.10205 146.394 4.91405 146.5 4.88305C146.982 4.74305 147.694 4.48305 148.085 4.09005C148.475 3.69705 148.731 2.98205 148.868 2.49905Z" fill="#FFCC67"/>
<path fill-rule="evenodd" clip-rule="evenodd" d="M163 3.25C163.199 3.25 163.39 3.32902 163.53 3.46967C163.671 3.61032 163.75 3.80109 163.75 4V4.25H164C164.199 4.25 164.39 4.32902 164.53 4.46967C164.671 4.61032 164.75 4.80109 164.75 5C164.75 5.19891 164.671 5.38968 164.53 5.53033C164.39 5.67098 164.199 5.75 164 5.75H163.75V6C163.75 6.19891 163.671 6.38968 163.53 6.53033C163.39 6.67098 163.199 6.75 163 6.75C162.801 6.75 162.61 6.67098 162.47 6.53033C162.329 6.38968 162.25 6.19891 162.25 6V5.75H162C161.801 5.75 161.61 5.67098 161.47 5.53033C161.329 5.38968 161.25 5.19891 161.25 5C161.25 4.80109 161.329 4.61032 161.47 4.46967C161.61 4.32902 161.801 4.25 162 4.25H162.25V4C162.25 3.80109 162.329 3.61032 162.47 3.46967C162.61 3.32902 162.801 3.25 163 3.25Z" fill="#FFCC67"/>
<path d="M118.08 7.89605C119.157 5.96505 119.695 4.99905 120.5 4.99905C121.305 4.99905 121.843 5.96505 122.92 7.89605L123.198 8.39605C123.504 8.94505 123.658 9.21905 123.896 9.40005C124.134 9.58105 124.431 9.64805 125.026 9.78305L125.566 9.90505C127.657 10.378 128.703 10.615 128.951 11.415C129.2 12.215 128.487 13.048 127.061 14.715L126.693 15.145C126.288 15.619 126.086 15.856 125.994 16.149C125.904 16.442 125.934 16.758 125.995 17.389L126.051 17.965C126.267 20.189 126.374 21.301 125.723 21.795C125.072 22.289 124.093 21.839 122.136 20.938L121.629 20.704C121.073 20.448 120.795 20.32 120.5 20.32C120.205 20.32 119.927 20.448 119.37 20.704L118.864 20.938C116.907 21.838 115.928 22.29 115.277 21.795C114.626 21.301 114.734 20.189 114.949 17.965L115.005 17.39C115.066 16.758 115.097 16.442 115.005 16.15C114.915 15.856 114.712 15.62 114.307 15.146L113.938 14.714C112.513 13.048 111.8 12.214 112.048 11.414C112.298 10.614 113.343 10.378 115.434 9.90505L115.974 9.78305C116.569 9.64805 116.866 9.58105 117.104 9.40005C117.343 9.22005 117.496 8.94505 117.802 8.39605L118.08 7.89605ZM112.868 2.49905C112.898 2.39405 113.085 2.39305 113.116 2.49905C113.256 2.98105 113.516 3.69305 113.909 4.08405C114.302 4.47405 115.017 4.73005 115.499 4.86705C115.606 4.89705 115.606 5.08405 115.501 5.11505C115.019 5.25505 114.306 5.51505 113.915 5.90805C113.525 6.30105 113.27 7.01605 113.133 7.49805C113.103 7.60505 112.915 7.60505 112.884 7.50005C112.744 7.01805 112.484 6.30505 112.091 5.91405C111.698 5.52405 110.984 5.26905 110.501 5.13205C110.395 5.10205 110.394 4.91405 110.5 4.88305C110.982 4.74305 111.694 4.48305 112.085 4.09005C112.475 3.69705 112.731 2.98205 112.868 2.49905Z" fill="#FFCC67"/>
<path fill-rule="evenodd" clip-rule="evenodd" d="M127 3.25C127.199 3.25 127.39 3.32902 127.53 3.46967C127.671 3.61032 127.75 3.80109 127.75 4V4.25H128C128.199 4.25 128.39 4.32902 128.53 4.46967C128.671 4.61032 128.75 4.80109 128.75 5C128.75 5.19891 128.671 5.38968 128.53 5.53033C128.39 5.67098 128.199 5.75 128 5.75H127.75V6C127.75 6.19891 127.671 6.38968 127.53 6.53033C127.39 6.67098 127.199 6.75 127 6.75C126.801 6.75 126.61 6.67098 126.47 6.53033C126.329 6.38968 126.25 6.19891 126.25 6V5.75H126C125.801 5.75 125.61 5.67098 125.47 5.53033C125.329 5.38968 125.25 5.19891 125.25 5C125.25 4.80109 125.329 4.61032 125.47 4.46967C125.61 4.32902 125.801 4.25 126 4.25H126.25V4C126.25 3.80109 126.329 3.61032 126.47 3.46967C126.61 3.32902 126.801 3.25 127 3.25Z" fill="#FFCC67"/>
<path d="M82.0799 7.89605C83.1569 5.96505 83.6949 4.99905 84.4999 4.99905C85.3049 4.99905 85.8429 5.96505 86.9199 7.89605L87.1979 8.39605C87.5039 8.94505 87.6579 9.21905 87.8959 9.40005C88.1339 9.58105 88.4309 9.64805 89.0259 9.78305L89.5659 9.90505C91.6569 10.378 92.7029 10.615 92.9509 11.415C93.1999 12.215 92.4869 13.048 91.0609 14.715L90.6929 15.145C90.2879 15.619 90.0859 15.856 89.9939 16.149C89.9039 16.442 89.9339 16.758 89.9949 17.389L90.0509 17.965C90.2669 20.189 90.3739 21.301 89.7229 21.795C89.0719 22.289 88.0929 21.839 86.1359 20.938L85.6289 20.704C85.0729 20.448 84.7949 20.32 84.4999 20.32C84.2049 20.32 83.9269 20.448 83.3699 20.704L82.8639 20.938C80.9069 21.838 79.9279 22.29 79.2769 21.795C78.6259 21.301 78.7339 20.189 78.9489 17.965L79.0049 17.39C79.0659 16.758 79.0969 16.442 79.0049 16.15C78.9149 15.856 78.7119 15.62 78.3069 15.146L77.9379 14.714C76.5129 13.048 75.7999 12.214 76.0479 11.414C76.2979 10.614 77.3429 10.378 79.4339 9.90505L79.9739 9.78305C80.5689 9.64805 80.8659 9.58105 81.1039 9.40005C81.3429 9.22005 81.4959 8.94505 81.8019 8.39605L82.0799 7.89605ZM76.8679 2.49905C76.8979 2.39405 77.0849 2.39305 77.1159 2.49905C77.2559 2.98105 77.5159 3.69305 77.9089 4.08405C78.3019 4.47405 79.0169 4.73005 79.4989 4.86705C79.6059 4.89705 79.6059 5.08405 79.5009 5.11505C79.0189 5.25505 78.3059 5.51505 77.9149 5.90805C77.5249 6.30105 77.2699 7.01605 77.1329 7.49805C77.1029 7.60505 76.9149 7.60505 76.8839 7.50005C76.7439 7.01805 76.4839 6.30505 76.0909 5.91405C75.6979 5.52405 74.9839 5.26905 74.5009 5.13205C74.3949 5.10205 74.3939 4.91405 74.4999 4.88305C74.9819 4.74305 75.6939 4.48305 76.0849 4.09005C76.4749 3.69705 76.7309 2.98205 76.8679 2.49905Z" fill="#FFCC67"/>
<path fill-rule="evenodd" clip-rule="evenodd" d="M91 3.25C91.1989 3.25 91.3897 3.32902 91.5303 3.46967C91.671 3.61032 91.75 3.80109 91.75 4V4.25H92C92.1989 4.25 92.3897 4.32902 92.5303 4.46967C92.671 4.61032 92.75 4.80109 92.75 5C92.75 5.19891 92.671 5.38968 92.5303 5.53033C92.3897 5.67098 92.1989 5.75 92 5.75H91.75V6C91.75 6.19891 91.671 6.38968 91.5303 6.53033C91.3897 6.67098 91.1989 6.75 91 6.75C90.8011 6.75 90.6103 6.67098 90.4697 6.53033C90.329 6.38968 90.25 6.19891 90.25 6V5.75H90C89.8011 5.75 89.6103 5.67098 89.4697 5.53033C89.329 5.38968 89.25 5.19891 89.25 5C89.25 4.80109 89.329 4.61032 89.4697 4.46967C89.6103 4.32902 89.8011 4.25 90 4.25H90.25V4C90.25 3.80109 90.329 3.61032 90.4697 3.46967C90.6103 3.32902 90.8011 3.25 91 3.25Z" fill="#FFCC67"/>
</svg>
