<svg width="168" height="24" viewBox="0 0 168 24" fill="none" xmlns="http://www.w3.org/2000/svg">
<path d="M10.0796 7.897C11.1566 5.966 11.6946 5 12.4996 5C13.3046 5 13.8426 5.966 14.9196 7.897L15.1976 8.397C15.5036 8.946 15.6576 9.22 15.8956 9.401C16.1336 9.582 16.4306 9.649 17.0256 9.784L17.5656 9.906C19.6566 10.379 20.7026 10.616 20.9506 11.416C21.1996 12.216 20.4866 13.049 19.0606 14.716L18.6926 15.146C18.2876 15.62 18.0856 15.857 17.9936 16.15C17.9036 16.443 17.9336 16.759 17.9946 17.39L18.0506 17.966C18.2666 20.19 18.3736 21.302 17.7226 21.796C17.0716 22.29 16.0926 21.84 14.1356 20.939L13.6286 20.705C13.0726 20.449 12.7946 20.321 12.4996 20.321C12.2046 20.321 11.9266 20.449 11.3696 20.705L10.8636 20.939C8.90657 21.839 7.92757 22.291 7.27657 21.796C6.62557 21.302 6.73357 20.19 6.94857 17.966L7.00457 17.391C7.06557 16.759 7.09657 16.443 7.00457 16.151C6.91457 15.857 6.71157 15.621 6.30657 15.147L5.93757 14.715C4.51257 13.049 3.79957 12.215 4.04757 11.415C4.29757 10.615 5.34257 10.379 7.43357 9.906L7.97357 9.784C8.56857 9.649 8.86557 9.582 9.10357 9.401C9.34257 9.221 9.49557 8.946 9.80157 8.397L10.0796 7.897Z" stroke="#FFCC67" stroke-width="1.5"/>
<path d="M4.99 2C4.99 2 5.278 3.458 5.91 4.085C6.54 4.712 8 4.99 8 4.99C8 4.99 6.542 5.278 5.915 5.91C5.288 6.54 5.01 8 5.01 8C5.01 8 4.722 6.542 4.09 5.915C3.46 5.288 2 5.01 2 5.01C2 5.01 3.458 4.722 4.085 4.09C4.712 3.46 4.99 2 4.99 2Z" stroke="#FFCC67" stroke-linejoin="round"/>
<path d="M18 5H20M19 6V4" stroke="#FFCC67" stroke-width="1.5" stroke-linecap="round"/>
<path d="M82.0796 7.897C83.1566 5.966 83.6946 5 84.4996 5C85.3046 5 85.8426 5.966 86.9196 7.897L87.1976 8.397C87.5036 8.946 87.6576 9.22 87.8956 9.401C88.1336 9.582 88.4306 9.649 89.0256 9.784L89.5656 9.906C91.6566 10.379 92.7026 10.616 92.9506 11.416C93.1996 12.216 92.4866 13.049 91.0606 14.716L90.6926 15.146C90.2876 15.62 90.0856 15.857 89.9936 16.15C89.9036 16.443 89.9336 16.759 89.9946 17.39L90.0506 17.966C90.2666 20.19 90.3736 21.302 89.7226 21.796C89.0716 22.29 88.0926 21.84 86.1356 20.939L85.6286 20.705C85.0726 20.449 84.7946 20.321 84.4996 20.321C84.2046 20.321 83.9266 20.449 83.3696 20.705L82.8636 20.939C80.9066 21.839 79.9276 22.291 79.2766 21.796C78.6256 21.302 78.7336 20.19 78.9486 17.966L79.0046 17.391C79.0656 16.759 79.0966 16.443 79.0046 16.151C78.9146 15.857 78.7116 15.621 78.3066 15.147L77.9376 14.715C76.5126 13.049 75.7996 12.215 76.0476 11.415C76.2976 10.615 77.3426 10.379 79.4336 9.906L79.9736 9.784C80.5686 9.649 80.8656 9.582 81.1036 9.401C81.3426 9.221 81.4956 8.946 81.8016 8.397L82.0796 7.897Z" stroke="#FFCC67" stroke-width="1.5"/>
<path d="M76.99 2C76.99 2 77.278 3.458 77.91 4.085C78.54 4.712 80 4.99 80 4.99C80 4.99 78.542 5.278 77.915 5.91C77.288 6.54 77.01 8 77.01 8C77.01 8 76.722 6.542 76.09 5.915C75.46 5.288 74 5.01 74 5.01C74 5.01 75.458 4.722 76.085 4.09C76.712 3.46 76.99 2 76.99 2Z" stroke="#FFCC67" stroke-linejoin="round"/>
<path d="M90 5H92M91 6V4" stroke="#FFCC67" stroke-width="1.5" stroke-linecap="round"/>
<path d="M154.08 7.897C155.157 5.966 155.695 5 156.5 5C157.305 5 157.843 5.966 158.92 7.897L159.198 8.397C159.504 8.946 159.658 9.22 159.896 9.401C160.134 9.582 160.431 9.649 161.026 9.784L161.566 9.906C163.657 10.379 164.703 10.616 164.951 11.416C165.2 12.216 164.487 13.049 163.061 14.716L162.693 15.146C162.288 15.62 162.086 15.857 161.994 16.15C161.904 16.443 161.934 16.759 161.995 17.39L162.051 17.966C162.267 20.19 162.374 21.302 161.723 21.796C161.072 22.29 160.093 21.84 158.136 20.939L157.629 20.705C157.073 20.449 156.795 20.321 156.5 20.321C156.205 20.321 155.927 20.449 155.37 20.705L154.864 20.939C152.907 21.839 151.928 22.291 151.277 21.796C150.626 21.302 150.734 20.19 150.949 17.966L151.005 17.391C151.066 16.759 151.097 16.443 151.005 16.151C150.915 15.857 150.712 15.621 150.307 15.147L149.938 14.715C148.513 13.049 147.8 12.215 148.048 11.415C148.298 10.615 149.343 10.379 151.434 9.906L151.974 9.784C152.569 9.649 152.866 9.582 153.104 9.401C153.343 9.221 153.496 8.946 153.802 8.397L154.08 7.897Z" stroke="#FFCC67" stroke-width="1.5"/>
<path d="M148.99 2C148.99 2 149.278 3.458 149.91 4.085C150.54 4.712 152 4.99 152 4.99C152 4.99 150.542 5.278 149.915 5.91C149.288 6.54 149.01 8 149.01 8C149.01 8 148.722 6.542 148.09 5.915C147.46 5.288 146 5.01 146 5.01C146 5.01 147.458 4.722 148.085 4.09C148.712 3.46 148.99 2 148.99 2Z" stroke="#FFCC67" stroke-linejoin="round"/>
<path d="M162 5H164M163 6V4" stroke="#FFCC67" stroke-width="1.5" stroke-linecap="round"/>
<path d="M118.08 7.897C119.157 5.966 119.695 5 120.5 5C121.305 5 121.843 5.966 122.92 7.897L123.198 8.397C123.504 8.946 123.658 9.22 123.896 9.401C124.134 9.582 124.431 9.649 125.026 9.784L125.566 9.906C127.657 10.379 128.703 10.616 128.951 11.416C129.2 12.216 128.487 13.049 127.061 14.716L126.693 15.146C126.288 15.62 126.086 15.857 125.994 16.15C125.904 16.443 125.934 16.759 125.995 17.39L126.051 17.966C126.267 20.19 126.374 21.302 125.723 21.796C125.072 22.29 124.093 21.84 122.136 20.939L121.629 20.705C121.073 20.449 120.795 20.321 120.5 20.321C120.205 20.321 119.927 20.449 119.37 20.705L118.864 20.939C116.907 21.839 115.928 22.291 115.277 21.796C114.626 21.302 114.734 20.19 114.949 17.966L115.005 17.391C115.066 16.759 115.097 16.443 115.005 16.151C114.915 15.857 114.712 15.621 114.307 15.147L113.938 14.715C112.513 13.049 111.8 12.215 112.048 11.415C112.298 10.615 113.343 10.379 115.434 9.906L115.974 9.784C116.569 9.649 116.866 9.582 117.104 9.401C117.343 9.221 117.496 8.946 117.802 8.397L118.08 7.897Z" stroke="#FFCC67" stroke-width="1.5"/>
<path d="M112.99 2C112.99 2 113.278 3.458 113.91 4.085C114.54 4.712 116 4.99 116 4.99C116 4.99 114.542 5.278 113.915 5.91C113.288 6.54 113.01 8 113.01 8C113.01 8 112.722 6.542 112.09 5.915C111.46 5.288 110 5.01 110 5.01C110 5.01 111.458 4.722 112.085 4.09C112.712 3.46 112.99 2 112.99 2Z" stroke="#FFCC67" stroke-linejoin="round"/>
<path d="M126 5H128M127 6V4" stroke="#FFCC67" stroke-width="1.5" stroke-linecap="round"/>
<path d="M46.0796 7.897C47.1566 5.966 47.6946 5 48.4996 5C49.3046 5 49.8426 5.966 50.9196 7.897L51.1976 8.397C51.5036 8.946 51.6576 9.22 51.8956 9.401C52.1336 9.582 52.4306 9.649 53.0256 9.784L53.5656 9.906C55.6566 10.379 56.7026 10.616 56.9506 11.416C57.1996 12.216 56.4866 13.049 55.0606 14.716L54.6926 15.146C54.2876 15.62 54.0856 15.857 53.9936 16.15C53.9036 16.443 53.9336 16.759 53.9946 17.39L54.0506 17.966C54.2666 20.19 54.3736 21.302 53.7226 21.796C53.0716 22.29 52.0926 21.84 50.1356 20.939L49.6286 20.705C49.0726 20.449 48.7946 20.321 48.4996 20.321C48.2046 20.321 47.9266 20.449 47.3696 20.705L46.8636 20.939C44.9066 21.839 43.9276 22.291 43.2766 21.796C42.6256 21.302 42.7336 20.19 42.9486 17.966L43.0046 17.391C43.0656 16.759 43.0966 16.443 43.0046 16.151C42.9146 15.857 42.7116 15.621 42.3066 15.147L41.9376 14.715C40.5126 13.049 39.7996 12.215 40.0476 11.415C40.2976 10.615 41.3426 10.379 43.4336 9.906L43.9736 9.784C44.5686 9.649 44.8656 9.582 45.1036 9.401C45.3426 9.221 45.4956 8.946 45.8016 8.397L46.0796 7.897Z" stroke="#FFCC67" stroke-width="1.5"/>
<path d="M40.99 2C40.99 2 41.278 3.458 41.91 4.085C42.54 4.712 44 4.99 44 4.99C44 4.99 42.542 5.278 41.915 5.91C41.288 6.54 41.01 8 41.01 8C41.01 8 40.722 6.542 40.09 5.915C39.46 5.288 38 5.01 38 5.01C38 5.01 39.458 4.722 40.085 4.09C40.712 3.46 40.99 2 40.99 2Z" stroke="#FFCC67" stroke-linejoin="round"/>
<path d="M54 5H56M55 6V4" stroke="#FFCC67" stroke-width="1.5" stroke-linecap="round"/>
</svg>
